<svg width="12" height="12" viewBox="0 0 12 12" fill="none" xmlns="http://www.w3.org/2000/svg">
	<mask id="mask" fill="white">
		<path fill-rule="evenodd" clip-rule="evenodd" d="M0 0H4.00008V1.99999H7.99968V0H11.9998V4.00008H9.99981V8.00002H11.9998V12.0001H7.99968V10.0001H4.00008V12.0001H0V8.00002H1.99965V4.00008H0V0ZM4.00008 9.00014V8.00002H2.99965V4.00008H4.00008V2.99999H7.99968V4.00008H8.99981V8.00002H7.99968V9.00014H4.00008Z"/>
	</mask>
	<path d="M4.00008 0H5.00008V-1H4.00008V0ZM0 0V-1H-1V0H0ZM4.00008 1.99999H3.00008V2.99999H4.00008V1.99999ZM7.99968 1.99999V2.99999H8.99968V1.99999H7.99968ZM7.99968 0V-1H6.99968V0H7.99968ZM11.9998 0H12.9998V-1H11.9998V0ZM11.9998 4.00008V5.00008H12.9998V4.00008H11.9998ZM9.99981 4.00008V3.00008H8.99981V4.00008H9.99981ZM9.99981 8.00002H8.99981V9.00002H9.99981V8.00002ZM11.9998 8.00002H12.9998V7.00002H11.9998V8.00002ZM11.9998 12.0001V13.0001H12.9998V12.0001H11.9998ZM7.99968 12.0001H6.99968V13.0001H7.99968V12.0001ZM7.99968 10.0001H8.99968V9.00014H7.99968V10.0001ZM4.00008 10.0001V9.00014H3.00008V10.0001H4.00008ZM4.00008 12.0001V13.0001H5.00008V12.0001H4.00008ZM0 12.0001H-1V13.0001H0V12.0001ZM0 8.00002V7.00002H-1V8.00002H0ZM1.99965 8.00002V9.00002H2.99965V8.00002H1.99965ZM1.99965 4.00008H2.99965V3.00008H1.99965V4.00008ZM0 4.00008H-1V5.00008H0V4.00008ZM4.00008 8.00002H5.00008V7.00002H4.00008V8.00002ZM4.00008 9.00014H3.00008V10.0001H4.00008V9.00014ZM2.99965 8.00002H1.99965V9.00002H2.99965V8.00002ZM2.99965 4.00008V3.00008H1.99965V4.00008H2.99965ZM4.00008 4.00008V5.00008H5.00008V4.00008H4.00008ZM4.00008 2.99999V1.99999H3.00008V2.99999H4.00008ZM7.99968 2.99999H8.99968V1.99999H7.99968V2.99999ZM7.99968 4.00008H6.99968V5.00008H7.99968V4.00008ZM8.99981 4.00008H9.99981V3.00008H8.99981V4.00008ZM8.99981 8.00002V9.00002H9.99981V8.00002H8.99981ZM7.99968 8.00002V7.00002H6.99968V8.00002H7.99968ZM7.99968 9.00014V10.0001H8.99968V9.00014H7.99968ZM4.00008 -1H0V1H4.00008V-1ZM5.00008 1.99999V0H3.00008V1.99999H5.00008ZM7.99968 0.999988H4.00008V2.99999H7.99968V0.999988ZM6.99968 0V1.99999H8.99968V0H6.99968ZM11.9998 -1H7.99968V1H11.9998V-1ZM12.9998 4.00008V0H10.9998V4.00008H12.9998ZM9.99981 5.00008H11.9998V3.00008H9.99981V5.00008ZM10.9998 8.00002V4.00008H8.99981V8.00002H10.9998ZM11.9998 7.00002H9.99981V9.00002H11.9998V7.00002ZM12.9998 12.0001V8.00002H10.9998V12.0001H12.9998ZM7.99968 13.0001H11.9998V11.0001H7.99968V13.0001ZM6.99968 10.0001V12.0001H8.99968V10.0001H6.99968ZM4.00008 11.0001H7.99968V9.00014H4.00008V11.0001ZM3.00008 10.0001V12.0001H5.00008V10.0001H3.00008ZM4.00008 11.0001H0V13.0001H4.00008V11.0001ZM1 12.0001V8.00002H-1V12.0001H1ZM0 9.00002H1.99965V7.00002H0V9.00002ZM0.999655 4.00008V8.00002H2.99965V4.00008H0.999655ZM0 5.00008H1.99965V3.00008H0V5.00008ZM-1 0V4.00008H1V0H-1ZM3.00008 8.00002V9.00014H5.00008V8.00002H3.00008ZM2.99965 9.00002H4.00008V7.00002H2.99965V9.00002ZM3.99965 8.00002V4.00008H1.99965V8.00002H3.99965ZM2.99965 5.00008H4.00008V3.00008H2.99965V5.00008ZM5.00008 4.00008V2.99999H3.00008V4.00008H5.00008ZM4.00008 3.99999H7.99968V1.99999H4.00008V3.99999ZM6.99968 2.99999V4.00008H8.99968V2.99999H6.99968ZM7.99968 5.00008H8.99981V3.00008H7.99968V5.00008ZM7.99981 4.00008V8.00002H9.99981V4.00008H7.99981ZM8.99981 7.00002H7.99968V9.00002H8.99981V7.00002ZM6.99968 8.00002V9.00014H8.99968V8.00002H6.99968ZM7.99968 8.00014H4.00008V10.0001H7.99968V8.00014Z" mask="url(#mask)"/>
</svg>
