<svg width="33" height="32" viewBox="0 0 33 32" fill="none" xmlns="http://www.w3.org/2000/svg">
<g opacity="0.7">
<path fill-rule="evenodd" clip-rule="evenodd" d="M18.98 16.16C19.14 16.24 18.98 16.56 18.98 16.64C19.06 16.72 19.14 16.72 19.22 16.72C19.14 17.12 18.98 17.36 18.5 17.36C18.58 17.2 18.66 17.12 18.74 16.96C18.74 16.88 18.66 17.04 18.58 16.96C18.42 16.48 18.74 16.32 18.98 16.16Z" fill="#D5D4D2"/>
<path fill-rule="evenodd" clip-rule="evenodd" d="M8.34001 27.8401C8.18001 27.7601 8.10001 27.8401 7.86001 27.8401C7.94001 27.4401 7.86001 27.4401 7.78001 27.1201C7.94001 27.1201 7.94001 27.2801 8.10001 27.1201C7.94001 27.0401 7.94001 26.9601 7.70001 26.9601C7.78001 26.8801 7.78001 26.7201 7.70001 26.6401C7.46001 26.7201 7.38001 26.8801 7.06001 26.8801C7.46001 26.3201 8.42001 26.3201 8.50001 25.4401C8.58001 25.4401 8.66001 25.3601 8.74001 25.3601C8.74001 25.2801 8.66001 25.2001 8.74001 25.2001C8.82001 25.1201 8.82001 25.2801 8.90001 25.2801C8.98001 25.0401 8.58001 25.2001 8.58001 25.0401C8.50001 24.8801 8.66001 24.9601 8.66001 24.8801C8.42001 24.8801 8.50001 25.1201 8.42001 25.2001C8.34001 25.2001 8.26001 25.1201 8.18001 25.1201C8.10001 25.2001 8.18001 25.2801 8.18001 25.4401C8.10001 25.4401 8.02001 25.3601 7.94001 25.4401C7.94001 25.2801 7.86001 25.1201 7.78001 25.0401C7.54001 25.1201 7.54001 25.3601 7.54001 25.6001C7.70001 25.6001 7.86001 25.5201 8.10001 25.5201C8.10001 25.6801 7.86001 25.6001 7.94001 25.7601C7.62001 25.6001 7.54001 25.8401 7.22001 25.8401C7.22001 25.6801 7.30001 25.6801 7.30001 25.6001C7.22001 25.5201 6.98001 25.6001 6.98001 25.4401C6.90001 25.5201 6.90001 25.6001 6.82001 25.5201C6.74001 25.4401 6.74001 25.3601 6.82001 25.2801C6.42001 25.2801 6.26001 25.4401 5.70001 25.4401C5.70001 25.2801 5.54001 25.2801 5.54001 25.1201C5.46001 25.1201 5.46001 25.2001 5.46001 25.2001C5.46001 25.2001 5.54001 25.2001 5.54001 25.2801C5.54001 25.4401 5.46001 25.4401 5.46001 25.5201C5.46001 25.6801 5.54001 25.8401 5.62001 26.0001C5.70001 26.0001 5.78001 26.0001 5.78001 26.0801C5.86001 25.9201 6.02001 26.0801 6.18001 26.0801C6.34001 26.0801 6.34001 25.9201 6.42001 25.8401C6.82001 25.8401 6.98001 26.1601 6.82001 26.5601C6.66001 26.6401 6.58001 26.6401 6.42001 26.7201C6.50001 26.9601 6.90001 26.7201 7.14001 26.8001C7.14001 26.9601 7.06001 27.0401 6.98001 27.1201C7.06001 27.2001 7.14001 27.2001 7.06001 27.2801C7.14001 27.2801 7.30001 27.2001 7.30001 27.3601C7.30001 27.5201 7.14001 27.3601 7.06001 27.4401C7.14001 27.5201 7.22001 27.6001 7.38001 27.6001C7.38001 27.8401 7.14001 27.6801 7.30001 27.9201C7.22001 27.9201 7.22001 28.0001 7.06001 27.9201C6.98001 28.2401 6.66001 28.2401 6.58001 28.4801C6.58001 28.5601 6.74001 28.4801 6.66001 28.5601C6.66001 28.5601 6.58001 28.5601 6.50001 28.5601C6.34001 29.0401 6.02001 29.6801 6.02001 30.4001C5.86001 30.4801 5.78001 30.8001 5.78001 31.0401C5.54001 31.0401 5.46001 30.9601 5.38001 30.7201C5.30001 30.7201 5.22001 30.8001 5.22001 30.8801C5.30001 30.9601 5.38001 30.9601 5.38001 31.2001C5.06001 31.3601 4.90001 31.6801 4.42001 31.7601C4.42001 31.6801 4.42001 31.6001 4.42001 31.5201C4.90001 31.3601 4.66001 30.9601 4.58001 30.5601C4.58001 30.4801 4.42001 30.5601 4.42001 30.4801C4.26001 30.6401 4.34001 31.0401 4.58001 31.1201C4.58001 31.2801 4.50001 31.2801 4.50001 31.4401C4.34001 31.4401 4.26001 31.4401 4.18001 31.4401C4.18001 31.3601 4.10001 31.3601 4.10001 31.2001C3.94001 31.2001 3.78001 31.1201 3.62001 31.1201C3.62001 30.8801 3.54001 30.8801 3.46001 30.6401C3.54001 30.6401 3.70001 30.6401 3.78001 30.6401C4.02001 30.4001 3.78001 30.0001 3.62001 29.8401C3.78001 29.6801 3.78001 29.0401 3.38001 29.0401C3.30001 28.6401 3.54001 28.4801 3.46001 28.2401C3.54001 28.1601 3.62001 28.2401 3.70001 28.2401C3.70001 28.0001 3.62001 27.9201 3.78001 27.8401C3.70001 27.7601 3.54001 27.8401 3.46001 27.8401C3.38001 28.0801 3.22001 28.1601 2.98001 28.2401C3.38001 27.7601 2.50001 27.4401 2.98001 26.9601C2.82001 26.9601 2.82001 26.8001 2.66001 26.8001C2.66001 26.6401 2.74001 26.6401 2.74001 26.5601C2.58001 26.4801 2.58001 26.7201 2.58001 26.8001C2.42001 26.8001 2.42001 26.8801 2.26001 26.8001C2.34001 26.6401 2.42001 26.5601 2.42001 26.3201C2.50001 26.3201 2.66001 26.4001 2.66001 26.2401C2.66001 26.4001 2.82001 26.3201 2.90001 26.4001C2.90001 26.3201 2.90001 26.3201 2.90001 26.2401C3.06001 26.3201 3.06001 26.1601 3.14001 26.0801C3.22001 26.0801 3.30001 26.1601 3.46001 26.1601C3.46001 26.3201 3.46001 26.4001 3.62001 26.3201C3.70001 26.2401 3.70001 26.1601 3.62001 26.0001C3.70001 26.0001 3.78001 25.8401 3.86001 25.8401C4.02001 25.8401 3.86001 26.0801 4.10001 26.0001C4.18001 26.0001 4.02001 25.9201 4.02001 25.7601C4.18001 25.7601 4.18001 25.7601 4.34001 25.7601C4.34001 25.6001 4.34001 25.5201 4.34001 25.4401C4.50001 25.4401 4.74001 25.4401 4.74001 25.2801C4.90001 25.2801 5.06001 25.2801 5.14001 25.3601C5.22001 25.1201 4.98001 24.8801 5.22001 24.7201C5.22001 24.6401 5.14001 24.6401 5.14001 24.4801C5.14001 24.4801 5.30001 24.4001 5.30001 24.2401C5.54001 24.3201 5.94001 24.1601 5.86001 24.4001C6.18001 24.3201 6.26001 24.0001 6.42001 23.8401C6.50001 23.8401 6.58001 23.8401 6.66001 23.9201C7.22001 23.4401 7.86001 22.9601 8.42001 22.4801C8.50001 22.3201 8.34001 22.4001 8.42001 22.2401C8.74001 22.1601 9.14001 22.0801 9.30001 21.8401C9.38001 21.8401 9.38001 22.0001 9.54001 21.9201C9.54001 22.0001 9.54001 22.0001 9.54001 22.0801C9.78001 22.0801 9.94001 22.3201 10.18 22.0801C10.58 22.1601 10.9 22.2401 11.3 22.0801C11.54 22.0001 11.7 21.8401 11.94 21.7601C12.1 21.7601 12.34 21.8401 12.58 21.8401C12.82 21.8401 13.06 21.6001 13.3 21.6001C13.3 21.6801 13.38 21.7601 13.38 21.8401C13.38 21.9201 13.3 22.0001 13.3 22.0801C13.38 22.1601 13.54 21.9201 13.7 22.0001C13.7 22.0801 13.7 22.1601 13.7 22.1601C13.86 22.1601 14.34 22.1601 14.26 21.9201C14.34 21.9201 14.34 22.0001 14.5 21.9201C14.5 21.7601 14.58 21.5201 14.74 21.6801C14.66 21.5201 14.58 21.3601 14.5 21.2001C14.58 20.9601 14.82 20.8801 14.82 20.5601C15.38 20.2401 16.26 19.4401 15.78 18.6401C15.86 18.0001 16.5 17.8401 17.06 17.8401C17.06 17.9201 17.06 18.0001 17.06 18.0801C16.98 18.0801 16.9 18.1601 16.82 18.1601C16.82 18.2401 16.74 18.3201 16.82 18.4801C16.58 18.4001 16.58 18.5601 16.42 18.6401C16.58 18.8001 16.5 19.2001 16.42 19.3601C16.5 19.4401 16.66 19.5201 16.74 19.6001C16.82 19.6001 16.9 19.5201 16.98 19.5201C16.98 19.3601 17.06 19.2801 17.06 19.1201C17.46 19.0401 17.94 18.9601 18.18 18.6401C18.26 18.6401 18.42 18.5601 18.42 18.6401C18.9 18.3201 19.3 17.8401 19.46 17.2001C19.7 17.0401 19.94 16.9601 20.18 16.8001C20.58 16.5601 20.5 16.0801 20.66 15.6001C20.82 15.2801 21.06 15.0401 21.14 14.8001C21.06 14.2401 21.86 13.2001 21.22 12.7201C21.14 12.7201 21.06 12.8001 20.9 12.7201C20.9 12.5601 20.82 12.5601 20.82 12.3201C20.9 12.3201 20.98 12.3201 21.06 12.3201C21.3 12.0801 21.46 11.9201 21.38 11.6001C21.38 11.4401 21.14 11.2001 21.06 10.8801C21.06 10.7201 21.3 10.7201 21.3 10.5601C21.86 10.6401 21.86 9.92009 21.7 9.68009C21.86 9.68009 21.86 9.52009 21.86 9.44009C21.94 9.44009 22.02 9.52009 22.1 9.60009C22.18 9.52009 22.34 9.52009 22.5 9.60009C22.5 9.84009 22.58 10.1601 22.66 10.3201C22.74 10.3201 22.74 10.3201 22.74 10.3201C22.82 10.2401 22.74 10.1601 22.82 10.0001C23.06 10.0001 23.06 10.2401 23.3 10.2401C23.38 10.0801 23.54 9.68009 23.38 9.52009C23.22 9.68009 22.98 9.76009 22.66 9.76009C22.66 9.36009 22.82 9.12009 22.82 8.72009C23.14 8.80009 23.22 8.96009 23.46 9.12009C23.62 9.12009 23.62 8.96009 23.86 8.96009C23.78 9.68009 23.7 10.3201 23.94 10.8801C24.5 10.8801 24.42 11.5201 24.66 11.6801C24.66 11.7601 24.66 11.8401 24.58 11.9201C24.98 12.1601 24.9 12.9601 24.98 13.4401C24.9 13.4401 24.9 13.4401 24.82 13.4401C24.82 13.6801 24.82 13.7601 24.66 14.0001C24.82 14.0801 24.66 14.1601 24.66 14.3201C24.42 14.3201 24.34 14.5601 24.34 14.6401C24.02 14.7201 24.26 15.1201 24.02 15.2801C24.18 15.5201 24.1 15.6801 24.1 16.0001C23.94 16.0001 23.86 15.9201 23.86 15.6801C23.7 15.6801 23.62 15.7601 23.46 15.6801C23.38 15.6801 23.54 15.7601 23.46 15.8401C22.98 15.9201 22.98 16.8801 23.3 17.1201C23.3 17.6801 23.3 18.2401 23.3 18.8001C22.9 19.0401 22.66 19.6001 22.74 20.0801C22.42 20.7201 23.06 21.1201 23.22 21.6001C22.42 21.5201 22.42 22.2401 22.34 22.8001C21.86 22.8001 21.7 23.1201 21.54 23.4401C21.38 23.4401 21.3 23.3601 21.22 23.2801C21.3 23.1201 21.46 22.6401 21.22 22.5601C21.3 22.2401 21.7 22.2401 21.78 22.0001C21.78 21.8401 21.7 21.9201 21.62 21.8401C21.54 21.9201 21.38 22.0001 21.22 21.8401C21.3 22.0001 21.22 22.0001 21.22 22.1601C21.06 22.3201 20.98 22.3201 20.9 22.5601C20.9 22.6401 21.06 22.5601 21.14 22.6401C21.14 22.8001 20.9 22.9601 21.06 22.9601C20.98 22.9601 20.9 22.9601 20.82 22.9601C20.9 22.4801 20.26 22.6401 20.1 22.8001C20.18 22.9601 20.1 22.9601 20.1 23.0401C19.94 23.0401 20.02 23.1201 19.94 23.1201C20.34 23.4401 19.86 23.6001 19.86 24.0801C19.3 24.5601 19.22 23.6001 19.46 23.2001C19.38 23.0401 19.14 23.1201 19.06 23.2001C19.06 23.2801 18.98 23.3601 19.06 23.4401C18.98 23.4401 18.9 23.5201 18.74 23.5201C18.74 23.8401 18.42 23.9201 18.5 24.2401C18.1 24.0801 17.54 24.1601 17.14 24.0001C16.9 24.1601 16.58 24.2401 16.26 24.2401C16.26 24.0801 16.34 24.1601 16.34 24.0001C16.58 24.1601 16.66 23.7601 16.9 23.9201C16.9 23.7601 16.74 23.8401 16.74 23.7601C16.66 23.9201 16.26 23.9201 16.18 23.7601C16.18 23.8401 16.26 23.8401 16.26 24.0001C16.1 24.0001 16.02 23.9201 15.94 23.9201C16.1 23.6801 15.78 23.6001 15.94 23.2801C15.62 23.4401 15.54 23.7601 15.46 24.0801C15.7 24.2401 15.94 24.3201 16.18 24.4801C16.18 24.6401 16.18 24.8001 16.18 24.9601C15.62 24.8801 15.38 25.0401 15.06 25.1201C15.22 25.6801 14.34 25.8401 14.42 26.4801C14.26 26.5601 14.1 26.5601 14.02 26.8001C13.7 26.5601 13.14 26.5601 13.22 26.0801C12.98 26.0801 12.98 25.7601 12.66 25.7601C12.74 25.6001 12.58 25.4401 12.82 25.4401C12.74 25.3601 12.74 25.1201 12.9 25.1201C12.82 25.0401 12.66 25.0401 12.66 24.8801C12.66 24.8001 12.82 24.8001 12.82 24.8801C12.82 24.8001 12.82 24.8001 12.82 24.7201C13.3 24.7201 13.3 24.2401 13.3 24.0001C13.06 23.8401 12.9 24.1601 12.74 24.0801C12.82 24.2401 12.58 24.3201 12.5 24.4801C12.5 24.6401 12.58 24.7201 12.58 24.8801C12.42 24.9601 12.26 25.0401 12.1 25.0401C12.1 25.0401 12.1 24.9601 12.1 24.8801C12.02 24.9601 12.02 25.1201 11.94 25.2801C11.94 25.4401 12.1 25.4401 12.18 25.5201C12.02 25.6801 12.18 25.6801 12.26 25.8401C11.7 26.0801 11.3 26.4801 11.14 27.1201C10.9 26.9601 10.82 26.7201 10.74 26.5601C10.26 26.3201 9.86001 26.7201 9.54001 26.7201C9.54001 26.8801 9.54001 26.9601 9.46001 27.2001C9.22001 27.2001 9.30001 27.5201 9.06001 27.5201C9.06001 27.8401 8.90001 27.9201 9.06001 28.1601C8.90001 28.1601 8.98001 28.0001 8.90001 28.0001C8.82001 28.0801 8.74001 28.0801 8.58001 28.0801C8.58001 28.0001 8.42001 28.0801 8.50001 27.9201C8.42001 28.0001 8.34001 28.0001 8.26001 28.0001C8.10001 28.1601 8.18001 27.9201 8.34001 27.8401ZM9.70001 24.8001C9.54001 24.8001 9.54001 24.7201 9.38001 24.8001C9.30001 24.8801 9.38001 24.8801 9.38001 25.0401C9.30001 25.0401 9.30001 24.9601 9.22001 25.0401C9.14001 25.1201 9.30001 25.0401 9.30001 25.2001C9.22001 25.2801 9.14001 25.3601 8.98001 25.5201C9.06001 25.6001 9.14001 25.6801 9.14001 25.7601C9.38001 25.6801 9.62001 25.6801 9.94001 25.6801C10.02 25.6001 10.1 25.5201 10.1 25.2801C10.1 25.2001 9.94001 25.2001 9.94001 25.0401C10.1 25.0401 10.1 25.1201 10.18 25.1201C10.34 25.0401 10.5 24.8801 10.58 24.8001C10.82 24.8001 10.82 24.8801 11.06 24.8001C11.3 24.8801 11.38 25.1201 11.62 25.2001C11.7 25.1201 11.86 25.1201 11.94 25.2001C12.02 24.8001 12.42 24.7201 12.58 24.4001C12.42 24.0801 11.7 24.2401 11.46 24.0801C11.3 24.3201 11.06 24.4001 10.9 24.6401C11.14 24.6401 11.3 24.4001 11.54 24.5601C11.54 24.7201 11.54 24.8801 11.46 24.8801C11.3 24.8001 11.38 24.9601 11.22 24.8801C11.22 24.8001 11.3 24.8001 11.22 24.7201C11.06 24.6401 10.98 24.8001 10.82 24.7201C10.74 24.8801 10.58 24.7201 10.42 24.8801C10.34 24.8001 10.34 24.7201 10.26 24.6401C10.18 24.8001 9.94001 24.7201 9.86001 24.7201C9.94001 24.5601 9.78001 24.7201 9.70001 24.8001ZM3.70001 27.6001C3.78001 27.6001 3.86001 27.6001 4.02001 27.6001C4.26001 27.8401 3.94001 28.2401 3.70001 28.3201C3.86001 28.2401 3.70001 28.4801 3.78001 28.4801C3.78001 28.4001 3.94001 28.4001 4.02001 28.4001C4.02001 28.3201 3.94001 28.1601 4.02001 28.1601C4.18001 28.2401 4.34001 28.0801 4.42001 27.8401C4.18001 27.6801 4.10001 27.4401 4.02001 27.0401C3.86001 27.0401 3.86001 26.9601 3.78001 26.9601C3.62001 27.1201 3.86001 27.3601 3.70001 27.6001ZM3.22001 27.6001C3.06001 27.5201 3.30001 27.2801 3.06001 27.2001C2.98001 27.2801 3.06001 27.4401 2.98001 27.5201C3.14001 27.5201 3.22001 27.6801 3.22001 27.6001ZM3.62001 29.2801C3.70001 29.2801 3.70001 29.2801 3.78001 29.2801C3.94001 29.0401 4.10001 28.8801 4.26001 28.6401C4.18001 28.4801 4.26001 28.3201 4.34001 28.2401C4.10001 28.2401 4.18001 28.5601 4.02001 28.7201C3.70001 28.7201 3.62001 28.8001 3.54001 28.9601C3.62001 29.0401 3.70001 28.8801 3.70001 28.9601C3.54001 29.0401 3.78001 29.2001 3.62001 29.2801ZM4.34001 30.4001C4.42001 30.3201 4.50001 30.4801 4.50001 30.5601C4.50001 30.4801 4.58001 30.4801 4.58001 30.4001C4.50001 30.2401 4.26001 30.2401 4.34001 30.4001Z" fill="#D5D4D2"/>
<path fill-rule="evenodd" clip-rule="evenodd" d="M24.1001 0.160034C25.3801 1.12003 25.8601 2.88003 28.0201 3.04003C27.9401 3.28003 28.1801 3.20003 28.1801 3.36003C29.2201 3.52003 29.1401 2.64003 29.7001 2.40003C29.9401 2.88003 28.7401 3.92003 29.8601 4.00003C29.8601 4.16003 29.7801 4.16003 29.7001 4.24003C29.7001 4.48003 29.8601 4.56003 30.0201 4.64003C30.1801 4.56003 30.1801 4.24003 30.5801 4.32003C30.6601 4.32003 30.5001 4.16003 30.5801 4.16003C30.6601 4.16003 30.7401 4.16003 30.8201 4.16003C30.7401 4.40003 30.4201 4.48003 30.2601 4.64003C30.2601 4.80003 30.2601 4.88003 30.2601 4.96003C30.0201 4.96003 29.9401 5.04003 29.7001 5.04003C29.6201 5.20003 29.5401 5.36003 29.3801 5.44003C29.2201 5.44003 29.1401 5.44003 29.0601 5.36003C28.9801 5.44003 29.1401 5.44003 29.0601 5.60003C28.7401 5.60003 28.4201 5.68003 28.2601 5.52003C27.7001 5.84003 26.9801 6.40003 26.8201 7.12003C26.7401 7.44003 26.9001 7.76003 26.7401 8.00003C26.5801 7.84003 26.4201 7.76003 26.2601 7.60003C25.7801 7.52003 25.2201 7.28003 24.7401 6.96003C24.5801 6.88003 24.3401 6.56003 24.0201 6.64003C23.5401 6.72003 23.3801 7.20003 22.9801 7.36003C22.6601 7.28003 22.7401 6.64003 22.1801 6.80003C21.7001 7.12003 21.9401 7.84003 22.5801 7.68003C22.8201 8.00003 23.0601 8.16003 23.3001 8.40003C23.1401 8.80003 22.6601 8.48003 22.4201 8.64003C22.4201 8.56003 22.4201 8.48003 22.4201 8.48003C22.4201 8.56003 22.4201 8.80003 22.1801 8.80003C22.1801 8.96003 22.1801 9.04003 22.1801 9.20003C21.9401 9.20003 21.8601 9.36003 21.7001 9.52003C21.5401 9.52003 21.4601 9.44003 21.3801 9.44003C21.0601 8.96003 21.7001 8.48003 21.3801 8.00003C21.1401 7.92003 20.9801 7.68003 20.8201 7.52003C20.9801 7.28003 20.9001 6.96003 20.9801 6.64003C21.3001 6.64003 21.4601 6.48003 21.4601 6.24003C21.5401 6.24003 21.5401 6.32003 21.6201 6.32003C21.7001 6.16003 21.7801 6.00003 21.9401 5.92003C21.8601 5.68003 21.6201 5.60003 21.7001 5.20003C22.0201 4.96003 22.2601 5.28003 22.5001 5.44003C22.6601 5.44003 22.7401 5.36003 22.9001 5.36003C22.8201 5.52003 22.9801 5.52003 23.0601 5.52003C23.3001 5.52003 23.3001 5.28003 23.4601 5.12003C23.3801 4.80003 23.2201 4.40003 23.3801 4.00003C23.5401 3.92003 23.7001 3.84003 23.7801 3.68003C23.7801 2.72003 24.0201 1.68003 23.4601 0.960034C23.7001 0.800034 23.6201 0.480034 23.7001 0.320034C23.7801 0.320034 23.7801 0.480034 23.9401 0.480034C24.0201 0.400034 24.1001 0.320034 24.1001 0.160034Z" fill="#D5D4D2"/>
</g>
<g clip-path="url(#clip0_1636_1245)">
<path d="M11.1849 14.7902C11.0127 14.5972 10.5828 14.2211 10.2295 13.9542C9.18268 13.1637 9.04021 13.0493 8.61518 12.658C7.83163 11.9365 7.49886 11.2116 7.5 10.2287C7.50056 9.74891 7.53326 9.56406 7.66763 9.28124C7.89559 8.80142 8.23138 8.44488 8.66069 8.22681C8.96476 8.07236 9.11473 8.00375 9.6225 8.00094C10.1537 7.998 10.2655 8.05994 10.5779 8.23159C10.9582 8.44052 11.3497 8.88703 11.4306 9.20422L11.4806 9.40012L11.6038 9.13032C12.3003 7.60566 14.5238 7.62847 15.2976 9.16821C15.5431 9.65666 15.57 10.6996 15.3523 11.2871C15.0684 12.0535 14.5351 12.6378 13.3023 13.5331C12.4938 14.1203 11.5787 15.0087 11.515 15.1334C11.4411 15.2783 11.5115 15.1561 11.1849 14.7902Z" fill="#19DBA2"/>
</g>
<defs>
<clipPath id="clip0_1636_1245">
<rect width="8" height="8" fill="white" transform="translate(7.5 8)"/>
</clipPath>
</defs>
</svg>
