<svg width="32" height="32" viewBox="0 0 32 32" fill="none" xmlns="http://www.w3.org/2000/svg">
  <path fill-rule="evenodd" clip-rule="evenodd" d="M10.8308 6.14154C8.24098 6.14154 6.14154 8.24098 6.14154 10.8308V21.1692C6.14154 23.759 8.24098 25.8585 10.8308 25.8585H21.1692C23.759 25.8585 25.8585 23.759 25.8585 21.1692V10.8308C25.8585 8.24098 23.759 6.14154 21.1692 6.14154H10.8308ZM4 10.8308C4 7.05824 7.05824 4 10.8308 4H21.1692C24.9418 4 28 7.05824 28 10.8308V21.1692C28 24.9418 24.9418 28 21.1692 28H10.8308C7.05824 28 4 24.9418 4 21.1692V10.8308Z"/>
  <path fill-rule="evenodd" clip-rule="evenodd" d="M16.0001 11.9755C13.7774 11.9755 11.9755 13.7774 11.9755 16.0001C11.9755 18.2229 13.7774 20.0248 16.0001 20.0248C18.2229 20.0248 20.0248 18.2229 20.0248 16.0001C20.0248 13.7774 18.2229 11.9755 16.0001 11.9755ZM9.83398 16.0001C9.83398 12.5947 12.5947 9.83398 16.0001 9.83398C19.4056 9.83398 22.1663 12.5947 22.1663 16.0001C22.1663 19.4056 19.4056 22.1663 16.0001 22.1663C12.5947 22.1663 9.83398 19.4056 9.83398 16.0001Z"/>
  <path d="M22.4246 10.978C23.1995 10.978 23.8276 10.3498 23.8276 9.57495C23.8276 8.80005 23.1995 8.17188 22.4246 8.17188C21.6497 8.17188 21.0215 8.80005 21.0215 9.57495C21.0215 10.3498 21.6497 10.978 22.4246 10.978Z"/>
</svg>
