<svg width="48" height="48" viewBox="0 0 48 48" fill="none" xmlns="http://www.w3.org/2000/svg">
<circle cx="24" cy="24" r="24" fill="#272626"/>
<path d="M15.0316 14C16.8 14 18 12.814 18 11C18 9.18605 16.8 8 15.0316 8C13.2632 8 12 9.25581 12 11C12 12.7442 13.2632 14 15.0316 14Z" fill="#19DBA2"/>
<path d="M33.1319 16.0063C32.0292 15.9547 30.9349 16.2211 29.9772 16.7743C29.0196 17.3276 28.2384 18.1447 27.7253 19.1297C26.8681 16.8038 25.022 16.0063 22.6484 16.0063C21.7058 16.0318 20.7856 16.3021 19.9771 16.7911C19.1685 17.2801 18.4989 17.9712 18.033 18.7975H17.967V16.3386H12.4945V32.6868C12.4945 34.5475 12.1648 35.6108 10.6484 35.6108C10.1364 35.6114 9.62655 35.5444 9.13187 35.4114L9 39.7311C9.95408 39.9291 10.9272 40.0182 11.9011 39.9969C16.2369 39.9969 17.8549 37.3207 17.9571 33.4178H17.967V24.6456C17.967 22.3196 18.956 20.5918 20.7363 20.5918C22.5165 20.5918 22.978 21.9873 22.978 24.1139V33.4178H28.4506V24.6456C28.4506 22.3196 29.3077 20.5918 31.2198 20.5918C33.1319 20.5918 33.4615 22.3196 33.4615 24.1139V33.4178H39V23.1171C39 18.9968 37.4176 16.0063 33.1319 16.0063Z" fill="white"/>
</svg>
